<svg width="79" height="142" viewBox="0 0 79 142" fill="none" xmlns="http://www.w3.org/2000/svg">
<g clip-path="url(#clip0_485_5663)">
<g filter="url(#filter0_dd_485_5663)">
<path d="M39.3508 2.12667e-05C17.5661 2.12667e-05 -0.144722 18.0393 -0.00652087 40.0696C0.0388241 47.4062 2.08965 54.5873 5.91932 60.8193C9.74898 67.0512 15.2084 72.0913 21.6941 75.3826C26.6141 77.8599 30.7555 81.6717 33.6556 86.392C36.5557 91.1123 38.1001 96.5551 38.116 102.112V125.196C38.0746 128.851 37.3265 132.463 35.9138 135.827C35.6826 136.396 35.5932 137.014 35.6535 137.627C35.7139 138.239 35.922 138.827 36.2598 139.339C36.5975 139.851 37.0545 140.271 37.5905 140.563C38.1265 140.855 38.7251 141.009 39.3338 141.012C39.9425 141.015 40.5426 140.866 41.0814 140.58C41.6201 140.294 42.081 139.878 42.4236 139.369C42.7662 138.86 42.9799 138.274 43.0461 137.663C43.1122 137.051 43.0287 136.432 42.8029 135.861C41.3488 132.176 40.4534 128.294 40.4534 124.318V102.294C40.4638 96.7042 42.0132 91.2274 44.9278 86.4771C47.8425 81.7269 52.0075 77.8906 56.9565 75.3978C64.8968 71.3943 71.266 64.7957 75.0307 56.6726C78.7954 48.5496 79.7346 39.3787 77.696 30.6482C75.6574 21.9176 70.7605 14.1396 63.8 8.57631C56.8395 3.01299 48.2238 -0.00924984 39.3508 2.12667e-05Z" fill="url(#paint0_linear_485_5663)"/>
<path d="M39.3514 0.500021L39.3508 0.500022C17.849 0.500021 0.356973 18.3079 0.493469 40.0665L0.49347 40.0665C0.538252 47.3121 2.56364 54.4037 6.34531 60.5575C10.1269 66.7112 15.5173 71.6874 21.9202 74.9367C21.9202 74.9367 21.9203 74.9367 21.9204 74.9368L21.6941 75.3826C26.6141 77.8599 30.7555 81.6717 33.6556 86.392C36.5557 91.1123 38.1001 96.5551 38.116 102.112L39.3514 0.500021ZM39.3514 0.500021C48.1102 0.490869 56.6157 3.47419 63.4879 8.96688C70.3601 14.4597 75.1958 22.1398 77.2091 30.7618C79.2224 39.3839 78.2947 48.4407 74.577 56.4624C70.8594 64.4839 64.5704 70.9989 56.7316 74.9513C51.6991 77.4861 47.4646 81.3867 44.5017 86.2156C41.5387 91.0446 39.964 96.6115 39.9534 102.293V102.294V124.318C39.9534 128.37 40.8657 132.314 42.3378 136.044L42.3379 136.044C42.5338 136.54 42.6064 137.078 42.549 137.609C42.4915 138.14 42.3059 138.649 42.0089 139.09C41.7119 139.531 41.3127 139.891 40.8467 140.139C40.3807 140.386 39.8621 140.514 39.3363 140.512C38.8104 140.509 38.293 140.376 37.8294 140.124C37.3658 139.872 36.97 139.508 36.6771 139.064C36.3843 138.62 36.2035 138.11 36.1511 137.578C36.0988 137.047 36.1761 136.511 36.3761 136.018L39.3514 0.500021Z" stroke="url(#paint1_linear_485_5663)"/>
</g>
<path d="M39.3514 135.709C39.0496 135.709 38.7545 135.799 38.5035 135.969C38.2525 136.139 38.0569 136.379 37.9414 136.661C37.8259 136.943 37.7956 137.254 37.8545 137.553C37.9134 137.852 38.0588 138.127 38.2722 138.343C38.4857 138.559 38.7576 138.706 39.0537 138.765C39.3497 138.825 39.6566 138.794 39.9355 138.678C40.2144 138.561 40.4527 138.363 40.6204 138.109C40.7881 137.855 40.8776 137.557 40.8776 137.252C40.8768 136.843 40.7158 136.451 40.4297 136.162C40.1437 135.873 39.756 135.71 39.3514 135.709Z" fill="white"/>
<path d="M39.3515 72.8674C57.411 72.8674 72.0512 58.0608 72.0512 39.796C72.0512 21.5312 57.411 6.72461 39.3515 6.72461C21.292 6.72461 6.65186 21.5312 6.65186 39.796C6.65186 58.0608 21.292 72.8674 39.3515 72.8674Z" fill="url(#paint2_linear_485_5663)"/>
<path d="M39.3515 72.0506C56.9664 72.0506 71.246 57.6099 71.246 39.7963C71.246 21.9827 56.9664 7.54199 39.3515 7.54199C21.7367 7.54199 7.45703 21.9827 7.45703 39.7963C7.45703 57.6099 21.7367 72.0506 39.3515 72.0506Z" fill="url(#paint3_linear_485_5663)"/>
</g>
<defs>
<filter id="filter0_dd_485_5663" x="-8.00732" y="-4" width="94.7563" height="157.012" filterUnits="userSpaceOnUse" color-interpolation-filters="sRGB">
<feFlood flood-opacity="0" result="BackgroundImageFix"/>
<feColorMatrix in="SourceAlpha" type="matrix" values="0 0 0 0 0 0 0 0 0 0 0 0 0 0 0 0 0 0 127 0" result="hardAlpha"/>
<feOffset dy="4"/>
<feGaussianBlur stdDeviation="4"/>
<feColorMatrix type="matrix" values="0 0 0 0 0 0 0 0 0 0 0 0 0 0 0 0 0 0 0.06 0"/>
<feBlend mode="normal" in2="BackgroundImageFix" result="effect1_dropShadow_485_5663"/>
<feColorMatrix in="SourceAlpha" type="matrix" values="0 0 0 0 0 0 0 0 0 0 0 0 0 0 0 0 0 0 127 0" result="hardAlpha"/>
<feOffset/>
<feGaussianBlur stdDeviation="2"/>
<feColorMatrix type="matrix" values="0 0 0 0 0 0 0 0 0 0 0 0 0 0 0 0 0 0 0.04 0"/>
<feBlend mode="normal" in2="effect1_dropShadow_485_5663" result="effect2_dropShadow_485_5663"/>
<feBlend mode="normal" in="SourceGraphic" in2="effect2_dropShadow_485_5663" result="shape"/>
</filter>
<linearGradient id="paint0_linear_485_5663" x1="39.3708" y1="0" x2="39.3708" y2="246.324" gradientUnits="userSpaceOnUse">
<stop stop-color="#1783B0"/>
<stop offset="0.646579" stop-color="#DC67EE" stop-opacity="0"/>
</linearGradient>
<linearGradient id="paint1_linear_485_5663" x1="39.3708" y1="0" x2="39.3708" y2="141.012" gradientUnits="userSpaceOnUse">
<stop stop-color="white"/>
<stop offset="1" stop-color="white" stop-opacity="0.3"/>
</linearGradient>
<linearGradient id="paint2_linear_485_5663" x1="39.3515" y1="6.72765" x2="39.3515" y2="72.8674" gradientUnits="userSpaceOnUse">
<stop stop-color="#F2F2F2"/>
<stop offset="1" stop-color="#E3E3E3"/>
</linearGradient>
<linearGradient id="paint3_linear_485_5663" x1="7.45703" y1="39.7963" x2="71.246" y2="39.7963" gradientUnits="userSpaceOnUse">
<stop stop-color="#F2F2F2"/>
<stop offset="0.99" stop-color="#FAFAFA"/>
</linearGradient>
<clipPath id="clip0_485_5663">
<rect width="78.7027" height="141.009" fill="white"/>
</clipPath>
</defs>
</svg>
