<svg width="202" height="66" viewBox="0 0 202 66" fill="none" xmlns="http://www.w3.org/2000/svg">
<path d="M60.1279 24.9761C60.2817 29.6074 64.0586 32.4272 69.9888 32.4272C76.1069 32.4272 79.9863 29.4023 79.9863 24.6172C79.9863 20.8574 77.833 18.7383 72.894 17.6787L69.9033 17.0464C67.0664 16.397 65.8701 15.5425 65.8701 14.0215C65.8701 12.1929 67.5791 10.9795 70.1255 10.9795C72.7061 10.9795 74.5347 12.2441 74.7056 14.3291H79.542C79.4565 9.86865 75.8506 6.91211 70.1084 6.91211C64.6055 6.91211 60.6748 9.91992 60.6748 14.4658C60.6748 18.0718 62.9136 20.3789 67.4595 21.353L70.6724 22.0537C73.646 22.7202 74.8252 23.6089 74.8252 25.2153C74.8252 27.0269 72.9453 28.3428 70.1938 28.3428C67.4595 28.3428 65.3403 27.0098 65.1011 24.9761H60.1279ZM84.0708 9.4585V13.6797H81.4902V17.4395H84.0708V27.061C84.0708 30.6328 85.7456 32.0684 90.0522 32.0684C91.0605 32.0684 91.915 31.9829 92.4277 31.8633V28.189C92.1201 28.2402 91.6587 28.2744 91.2144 28.2744C89.7446 28.2744 89.061 27.6079 89.061 26.2065V17.4395H92.4448V13.6797H89.061V9.4585H84.0708ZM102.083 28.6846C100.392 28.6846 99.2637 27.8301 99.2637 26.4629C99.2637 25.1641 100.323 24.3267 102.186 24.1899L106.048 23.9507V25.2837C106.048 27.2661 104.254 28.6846 102.083 28.6846ZM100.443 32.2905C102.733 32.2905 105.006 31.1455 106.031 29.1973H106.134V32H110.953V19.4048C110.953 15.7134 107.894 13.2866 103.194 13.2866C98.3408 13.2866 95.3159 15.7305 95.1279 19.2852H99.6909C99.9302 17.9351 101.109 17.0122 102.972 17.0122C104.852 17.0122 106.048 18.0034 106.048 19.7124V20.9258L101.434 21.1992C96.8711 21.4727 94.3076 23.4038 94.3076 26.7363C94.3076 30.0347 96.9565 32.2905 100.443 32.2905ZM125.069 32.2905C129.684 32.2905 132.503 28.7358 132.503 22.8398C132.503 16.9268 129.667 13.3892 125.052 13.3892C122.438 13.3892 120.404 14.688 119.396 16.8584H119.293V7.33936H114.303V32H119.225V28.8555H119.327C120.335 30.9917 122.386 32.2905 125.069 32.2905ZM123.343 17.3882C125.821 17.3882 127.394 19.5073 127.394 22.8398C127.394 26.1895 125.838 28.2744 123.343 28.2744C120.917 28.2744 119.276 26.1553 119.276 22.8398C119.276 19.5586 120.934 17.3882 123.343 17.3882ZM135.221 32H140.211V7.33936H135.221V32ZM151.798 16.978C154.02 16.978 155.541 18.5845 155.643 20.9258H147.867C148.038 18.6357 149.61 16.978 151.798 16.978ZM155.711 26.3945C155.25 27.7959 153.849 28.7017 152.02 28.7017C149.474 28.7017 147.816 26.9072 147.816 24.2925V23.9849H160.445V22.4639C160.445 16.8926 157.079 13.2866 151.747 13.2866C146.329 13.2866 142.911 17.0806 142.911 22.9253C142.911 28.7871 146.295 32.3931 151.935 32.3931C156.463 32.3931 159.745 29.9834 160.292 26.3945H155.711ZM71.9541 54.4272C78.0039 54.4272 82.2251 50.9409 82.8062 45.438H77.7817C77.2349 48.3604 75.0303 50.1548 71.9712 50.1548C68.0234 50.1548 65.5454 46.9077 65.5454 41.644C65.5454 36.4487 68.0576 33.1846 71.9541 33.1846C74.9619 33.1846 77.2861 35.167 77.7646 38.1919H82.7891C82.396 32.6719 77.8843 28.9121 71.9541 28.9121C64.8105 28.9121 60.2817 33.7144 60.2817 41.6611C60.2817 49.625 64.7764 54.4272 71.9541 54.4272ZM93.9829 54.3931C99.52 54.3931 103.058 50.8555 103.058 44.8228C103.058 38.8755 99.4688 35.2866 93.9829 35.2866C88.4971 35.2866 84.9082 38.8926 84.9082 44.8228C84.9082 50.8384 88.4458 54.3931 93.9829 54.3931ZM93.9829 50.582C91.522 50.582 89.9668 48.5142 89.9668 44.8398C89.9668 41.1997 91.5562 39.0977 93.9829 39.0977C96.4097 39.0977 97.9819 41.1997 97.9819 44.8398C97.9819 48.5142 96.4268 50.582 93.9829 50.582ZM105.638 54H110.628V43.4897C110.628 41.1143 112.047 39.4736 114.286 39.4736C116.524 39.4736 117.652 40.8408 117.652 43.2334V54H122.643V42.1909C122.643 37.9014 120.353 35.3379 116.285 35.3379C113.465 35.3379 111.534 36.6709 110.56 38.9438H110.458V35.6797H105.638V54ZM127.137 31.4585V35.6797H124.557V39.4395H127.137V49.061C127.137 52.6328 128.812 54.0684 133.119 54.0684C134.127 54.0684 134.981 53.9829 135.494 53.8633V50.189C135.187 50.2402 134.725 50.2744 134.281 50.2744C132.811 50.2744 132.127 49.6079 132.127 48.2065V39.4395H135.511V35.6797H132.127V31.4585H127.137ZM138.246 54H143.236V43.7632C143.236 41.1826 144.671 39.6787 147.132 39.6787C147.85 39.6787 148.534 39.7983 148.944 39.9692V35.5771C148.602 35.4746 148.106 35.3892 147.525 35.3892C145.372 35.3892 143.817 36.6538 143.167 38.978H143.065V35.6797H138.246V54ZM157.625 50.6846C155.934 50.6846 154.806 49.8301 154.806 48.4629C154.806 47.1641 155.865 46.3267 157.728 46.1899L161.59 45.9507V47.2837C161.59 49.2661 159.796 50.6846 157.625 50.6846ZM155.985 54.2905C158.275 54.2905 160.548 53.1455 161.573 51.1973H161.676V54H166.495V41.4048C166.495 37.7134 163.436 35.2866 158.736 35.2866C153.883 35.2866 150.858 37.7305 150.67 41.2852H155.233C155.472 39.9351 156.651 39.0122 158.514 39.0122C160.394 39.0122 161.59 40.0034 161.59 41.7124V42.9258L156.976 43.1992C152.413 43.4727 149.85 45.4038 149.85 48.7363C149.85 52.0347 152.499 54.2905 155.985 54.2905ZM186.371 42.4985C186.148 38.3457 183.004 35.2866 178.048 35.2866C172.562 35.2866 169.059 38.9438 169.059 44.8228C169.059 50.8042 172.562 54.3931 178.082 54.3931C182.901 54.3931 186.131 51.6074 186.388 47.2837H181.739C181.432 49.2832 180.133 50.4795 178.133 50.4795C175.655 50.4795 174.117 48.4287 174.117 44.8228C174.117 41.2852 175.655 39.2002 178.116 39.2002C180.167 39.2002 181.449 40.5674 181.739 42.4985H186.371ZM190.13 31.4585V35.6797H187.55V39.4395H190.13V49.061C190.13 52.6328 191.805 54.0684 196.112 54.0684C197.12 54.0684 197.975 53.9829 198.487 53.8633V50.189C198.18 50.2402 197.718 50.2744 197.274 50.2744C195.804 50.2744 195.121 49.6079 195.121 48.2065V39.4395H198.504V35.6797H195.121V31.4585H190.13Z" fill="white"/>
<path d="M106.982 44.7085L195.971 43.2918L196.018 46.2914L106.982 44.7085Z" fill="#23516A"/>
<g clip-path="url(#clip0_84_302)">
<g filter="url(#filter0_f_84_302)">
<circle cx="29" cy="30" r="27" fill="url(#paint0_linear_84_302)"/>
</g>
<path fill-rule="evenodd" clip-rule="evenodd" d="M52.7084 30.6011L52.6449 31.4576C52.2341 36.8294 49.9995 41.9007 46.3103 45.8338C42.621 49.7668 37.6979 52.3263 32.3541 53.0894C27.0102 53.8525 21.5654 52.7736 16.919 50.0309C12.2727 47.2882 8.70276 43.0457 6.79897 38.0044L6.3939 36.9287H11.8794L12.0922 37.3929C13.5799 40.6211 15.9625 43.3567 18.9584 45.2766C21.9542 47.1965 25.4382 48.2204 28.9985 48.2272C36.9247 48.2272 44.0039 43.1467 46.5698 35.7468H35.3748C34.5709 36.5916 33.6057 37.2674 32.5362 37.7344C31.4666 38.2014 30.3143 38.4502 29.147 38.4661H29.0328C27.7945 38.4655 26.5702 38.2044 25.4398 37.6998C24.3094 37.1953 23.2983 36.4586 22.4723 35.5378C21.6464 34.617 21.0242 33.5328 20.6463 32.3559C20.2684 31.179 20.1434 29.9358 20.2793 28.7074H5.29199L5.35722 27.851C5.75889 22.6511 7.87054 17.7292 11.3639 13.8505C14.8573 9.97176 19.5368 7.3534 24.675 6.4024C27.5928 5.86539 30.6333 5.85254 33.5443 6.44436C35.7947 6.89148 37.9704 7.65446 40.0064 8.71058C44.0549 10.8322 47.4048 14.0734 49.655 18.0461C50.2449 19.0925 50.756 20.1812 51.1843 21.3033L51.5919 22.3807H46.121L45.9082 21.9182C42.9183 15.4467 36.0717 11.0984 28.8715 11.0984C25.1143 11.0984 21.4593 12.2709 18.3021 14.49C15.1109 16.7337 12.7047 19.9192 11.422 23.5986H22.6642C23.6307 22.5907 24.8236 21.8266 26.1443 21.3694C27.465 20.9122 28.8757 20.7751 30.26 20.9692L30.3544 20.9829C32.437 21.2994 34.337 22.3501 35.71 23.9447C37.0829 25.5393 37.8378 27.572 37.8378 29.6744C37.8377 29.9951 37.8203 30.3156 37.7854 30.6345H47.5688V30.5977H48.3051L52.7084 30.6011Z" fill="url(#paint1_linear_84_302)"/>
</g>
<defs>
<filter id="filter0_f_84_302" x="-2" y="-1" width="62" height="62" filterUnits="userSpaceOnUse" color-interpolation-filters="sRGB">
<feFlood flood-opacity="0" result="BackgroundImageFix"/>
<feBlend mode="normal" in="SourceGraphic" in2="BackgroundImageFix" result="shape"/>
<feGaussianBlur stdDeviation="2" result="effect1_foregroundBlur_84_302"/>
</filter>
<linearGradient id="paint0_linear_84_302" x1="29" y1="3" x2="29" y2="76.481" gradientUnits="userSpaceOnUse">
<stop stop-color="#1783B0"/>
<stop offset="0.427826" stop-color="#DC67EE" stop-opacity="0"/>
</linearGradient>
<linearGradient id="paint1_linear_84_302" x1="29.0002" y1="6" x2="5.00018" y2="52.9998" gradientUnits="userSpaceOnUse">
<stop stop-color="#1783B0"/>
<stop offset="1" stop-color="#DC67EE"/>
</linearGradient>
<clipPath id="clip0_84_302">
<rect width="59" height="66" fill="white"/>
</clipPath>
</defs>
</svg>
